<svg xmlns="http://www.w3.org/2000/svg" width="20" height="20" viewBox="0 0 20 20">
    <g fill="none" fill-rule="evenodd">
        <g>
            <g>
                <g>
                    <g>
                        <g>
                            <g>
                                <g>
                                    <path fill="#C71D00" d="M11.198 8.902L11.198 18.962 13.788 16.374 15.668 20 17.034 19.292 15.224 15.804 18.718 15.804z" transform="translate(-1384 -656) translate(-1) translate(1 69) translate(265 244) translate(1 43.131) translate(1118 44.869) translate(0 255)"/>
                                    <path fill="#0056B9" d="M18.938 10.752c.018-.132.04-.264.054-.4.03-.302.048-.6.048-.916 0-.316-.016-.6-.044-.892-.014-.156-.04-.308-.062-.46-.016-.108-.026-.218-.044-.324-.703-3.87-3.73-6.897-7.6-7.6-.136-.03-.262-.042-.386-.06-.124-.018-.27-.042-.4-.056C10.2.016 9.902 0 9.6 0c-.302 0-.6.016-.896.044-.138.014-.272.036-.4.056-.128.02-.252.028-.374.05-3.87.703-6.897 3.73-7.6 7.6-.02.114-.03.232-.048.348-.018.116-.064.302-.082.448-.028.294-.044.6-.044.894 0 .294.016.6.044.892.014.154.04.302.062.454.016.11.026.222.046.332.703 3.87 3.73 6.897 7.6 7.6.116.02.234.032.35.048.116.016.288.044.436.058.294.028.6.044.892.044h.028v-2.2H9.6c-.415-.002-.828-.04-1.236-.114-.377-1.214-.633-2.462-.764-3.726.65.04 1.32.064 2 .064h.028v-1.258H9.6c-.754 0-1.462-.026-2.124-.07C7.43 10.902 7.4 10.2 7.4 9.44s.026-1.462.07-2.126c.664-.044 1.372-.07 2.126-.07.754 0 1.46.026 2.122.07v.114c.196.07.377.177.53.318l.774.71c-.01-.348-.03-.686-.052-1.024 1.275.13 2.534.388 3.758.768.072.408.11.822.112 1.236 0 .414-.037.827-.108 1.234-.298.098-.614.2-.972.284l.74.678 1.744 1.6c.294-.676.507-1.384.636-2.11.03-.122.042-.25.058-.37zm-12-8.036c-.292 1.13-.496 2.282-.612 3.444-1.161.115-2.312.32-3.442.61.738-1.848 2.2-3.313 4.046-4.054h.008zm0 13.45c-1.853-.738-3.321-2.204-4.062-4.056 1.13.292 2.28.496 3.442.612.115 1.161.32 2.312.61 3.442l.01.002zm-.726-4.718c-1.27-.132-2.522-.39-3.74-.77-.151-.818-.151-1.656 0-2.474 1.218-.38 2.47-.638 3.74-.77-.04.65-.064 1.32-.064 2 0 .68.024 1.366.064 2.014zM9.6 5.988c-.686 0-1.356.022-2 .062.132-1.27.39-2.522.77-3.74.817-.151 1.655-.151 2.472 0 .376 1.22.63 2.473.758 3.742-.644-.042-1.314-.064-2-.064zm3.278.17c-.115-1.162-.32-2.313-.61-3.444 1.85.74 3.317 2.205 4.056 4.056-1.131-.292-2.283-.496-3.446-.612z" transform="translate(-1384 -656) translate(-1) translate(1 69) translate(265 244) translate(1 43.131) translate(1118 44.869) translate(0 255)"/>
                                </g>
                            </g>
                        </g>
                    </g>
                </g>
            </g>
        </g>
    </g>
</svg>
